<svg xmlns:xlink="http://www.w3.org/1999/xlink" xmlns="http://www.w3.org/2000/svg" viewBox="0 0 12 12" width="20" height="20" fill="currentColor" aria-hidden="true" class="x14rh7hd x1lliihq x1tzjh5l x1k90msu x2h7rmj x1qfuztq" style="--x-color:var(--primary-icon)"><g stroke="none" stroke-width="1" fill-rule="evenodd" fill="#E2E5E9"><path d="m106.868 921.248-1.892 2.925a.32.32 0 0 1-.443.094l-1.753-1.134a.2.2 0 0 0-.222.003l-1.976 1.363c-.288.199-.64-.143-.45-.437l1.892-2.925a.32.32 0 0 1 .443-.095l1.753 1.134a.2.2 0 0 0 .222-.003l1.976-1.363c.288-.198.64.144.45.438m-3.368-4.251c-3.323 0-5.83 2.432-5.83 5.658 0 1.642.652 3.128 1.834 4.186a.331.331 0 0 1 .111.234l.03 1.01a.583.583 0 0 0 .82.519l1.13-.5a.32.32 0 0 1 .22-.015c.541.148 1.108.223 1.685.223 3.323 0 5.83-2.432 5.83-5.657 0-3.226-2.507-5.658-5.83-5.658" transform="translate(-450 -1073.5) translate(352.5 156.845)" fill="#E2E5E9"></path></g></svg>